<svg width="1005" height="909" viewBox="0 0 1005 909" fill="none" xmlns="http://www.w3.org/2000/svg">
<path d="M801.293 297.677C666.914 314.88 516.248 441.083 499.283 595.764C482.654 441.087 357.325 332.031 206.156 297.677C357.333 280.472 484.962 154.607 501.637 1.54616C518.556 154.603 650.125 263.323 801.293 297.677Z" fill="#2D47FE"/>
<path d="M564.675 908.52H449.254C387.637 908.52 332.679 871.999 302.82 818.099C225.145 677.885 143.126 606.085 0 507.324L83.6602 376.003C110.762 333.462 167.278 320.739 211.271 345.413C329.858 411.923 398.543 444.296 500.892 669.732C605.536 432.089 681.597 400.216 802.031 338.994C843.906 317.706 896.003 330.885 920.692 370.85L1005 507.324C860.399 600.195 785.188 677.204 710.285 817.814C681.336 872.158 626.248 908.52 564.675 908.52Z" fill="#2D47FE"/>
</svg>
