<svg width="262" height="253" viewBox="0 0 262 253" fill="none" xmlns="http://www.w3.org/2000/svg">
<path d="M208.894 82.7068C173.862 87.4864 134.584 122.551 130.161 165.528C125.826 122.552 93.1534 92.2518 53.7442 82.7068C93.1554 77.9267 126.428 42.9563 130.775 0.429587C135.186 42.9551 169.485 73.1619 208.894 82.7068Z" fill="#6142DE"/>
<path d="M147.343 252.424H116.983C101.069 252.424 86.9157 242.823 79.6483 228.665C59.1884 188.806 37.7453 168.713 0 140.955L22.057 104.056C28.8664 92.664 43.8811 89.2798 55.2739 96.0872C86.0688 114.487 103.955 123.576 130.581 186.079C157.803 120.193 177.605 111.235 208.885 94.2955C219.748 88.4129 233.577 91.9197 239.772 102.607L262 140.955C223.86 167.062 204.238 188.657 184.481 228.606C177.431 242.861 163.247 252.424 147.343 252.424Z" fill="#6142DE"/>
</svg>
