<svg width="156" height="44" viewBox="0 0 156 44" fill="none" xmlns="http://www.w3.org/2000/svg">
<path d="M36.0142 14.3687C29.9746 15.1927 23.2029 21.2379 22.4404 28.6473C21.693 21.2381 16.06 16.0142 9.26572 14.3687C16.0604 13.5445 21.7967 7.51549 22.5461 0.183722C23.3066 7.5153 29.2199 12.7231 36.0142 14.3687Z" fill="#6142DE"/>
<path d="M25.4026 43.6286H20.1684C17.4248 43.6286 14.9846 41.9733 13.7317 39.5324C10.2043 32.6605 6.50745 29.1965 0 24.4109L3.80272 18.0493C4.97669 16.0853 7.56528 15.5019 9.52945 16.6755C14.8386 19.8478 17.9223 21.4147 22.5127 32.1904C27.2058 20.8315 30.6198 19.2869 36.0126 16.3666C37.8854 15.3524 40.2696 15.957 41.3377 17.7996L45.1699 24.4109C38.5944 28.9118 35.2114 32.6349 31.8053 39.5222C30.5898 41.9799 28.1444 43.6286 25.4026 43.6286Z" fill="#6142DE"/>
<path d="M135.677 17.5873C135.677 11.9984 140.25 7.42573 145.839 7.42573C151.427 7.42573 156 11.9984 156 17.5873C156 23.1761 151.427 27.7488 145.839 27.7488C140.25 27.7488 135.677 23.1761 135.677 17.5873ZM141.149 17.5873C141.149 20.1667 143.259 22.2772 145.839 22.2772C148.418 22.2772 150.528 20.1667 150.528 17.5873C150.528 15.0078 148.418 12.8973 145.839 12.8973C143.259 12.8973 141.149 15.0078 141.149 17.5873Z" fill="#2C2C2C"/>
<path d="M113.807 17.5873C113.807 11.9984 118.38 7.42572 123.969 7.42572C129.558 7.42572 134.13 11.9984 134.13 17.5873C134.13 23.1761 129.558 27.7488 123.969 27.7488C118.38 27.7488 113.807 23.1761 113.807 17.5873ZM119.279 17.5873C119.279 20.1667 121.389 22.2772 123.969 22.2772C126.548 22.2772 128.659 20.1667 128.659 17.5873C128.659 15.0078 126.548 12.8973 123.969 12.8973C121.389 12.8973 119.279 15.0078 119.279 17.5873ZM134.13 27.7488C134.13 33.3376 129.558 37.9103 123.969 37.9103C118.38 37.9103 113.807 33.3376 113.807 27.7488H119.279C119.279 30.3282 121.389 32.4387 123.969 32.4387C126.548 32.4387 128.659 30.3282 128.659 27.7488H134.13Z" fill="#2C2C2C"/>
<path d="M91.9377 17.5873C91.9377 11.9984 96.5104 7.42573 102.099 7.42573C107.688 7.42573 112.261 11.9984 112.261 17.5873C112.261 20.5966 112.261 27.7488 112.261 27.7488H102.099C96.5104 27.7488 91.9377 23.1761 91.9377 17.5873ZM97.4093 17.5873C97.4093 20.1667 99.5198 22.2772 102.099 22.2772C103.545 22.2772 106.789 22.2772 106.789 22.2772C106.789 22.2772 106.789 18.7207 106.789 17.5873C106.789 15.0078 104.679 12.8973 102.099 12.8973C99.5198 12.8973 97.4093 15.0078 97.4093 17.5873Z" fill="#2C2C2C"/>
<path d="M84.8953 27.3579V11.7605C84.8953 9.5823 86.661 7.81655 88.8392 7.81655H90.3669V27.3579H84.8953ZM84.8953 27.3579V11.7605C84.8953 9.5823 86.661 7.81655 88.8392 7.81655H90.3669V27.3579H84.8953Z" fill="#2C2C2C"/>
<path d="M89.1647 1.83596C89.8407 1.83596 90.3887 2.38395 90.3887 3.05993L90.3887 4.98977C90.3887 6.23366 89.336 7.14403 88.1065 7.33296C86.775 7.53756 85.8666 8.15458 84.8808 9.62176L84.8808 3.05993C84.8808 2.38395 85.4288 1.83596 86.1048 1.83596L89.1647 1.83596ZM89.1647 1.83596C89.8407 1.83596 90.3887 2.38395 90.3887 3.05993L90.3887 4.98977C90.3887 6.23366 89.336 7.14403 88.1065 7.33296C86.775 7.53756 85.8666 8.15458 84.8808 9.62176L84.8808 3.05993C84.8808 2.38395 85.4288 1.83596 86.1048 1.83596L89.1647 1.83596Z" fill="#2C2C2C"/>
<path d="M82.567 17.5872V27.3579H77.0954V17.5872C77.0954 15.0078 74.9849 12.8973 72.4054 12.8973C69.826 12.8973 67.7155 15.0078 67.7155 17.5872C67.7155 18.7206 67.7155 22.2772 67.7155 22.2772L62.2439 21.6128C62.2439 19.2678 63.4164 19.3851 63.4164 17.5872C63.4164 4.0646 82.567 4.0646 82.567 17.5872ZM62.2439 27.3579V-1.33514e-05H67.7155V27.3579H62.2439Z" fill="#2C2C2C"/>
<path d="M50.6764 20.6747V-9.15527e-05H52.2721C54.4127 -9.15527e-05 56.148 1.73521 56.148 3.87581V20.0494C56.148 21.1437 56.6561 21.8863 58.1412 21.8863H60.6816V27.3579H58.1412C52.9432 27.3579 50.6764 25.4819 50.6764 20.6747ZM62.3738 12.5064H47.5498V10.6724C47.5498 9.09511 48.8284 7.81647 50.4057 7.81647H62.3738V12.5064Z" fill="#2C2C2C"/>
<path d="M110.448 38.6971H101.45C101.979 39.6045 102.962 40.2094 104.071 40.2094C104.676 40.2094 105.256 40.0078 105.735 39.6801L108.684 41.873C107.499 43.0325 105.861 43.7382 104.071 43.7382C100.442 43.7382 97.5178 40.8144 97.5178 37.1848C97.5178 33.5552 100.442 30.6313 104.071 30.6313C107.701 30.6313 110.625 33.5552 110.625 37.1848C110.625 37.6889 110.549 38.2182 110.448 38.6971ZM101.45 35.6724H106.667C106.138 34.765 105.18 34.1601 104.071 34.1601C102.962 34.1601 101.979 34.765 101.45 35.6724Z" fill="#6142DE"/>
<path d="M92.9888 43.4862V27.7106H93.2536C95.0562 27.7106 96.5176 29.1719 96.5176 30.9745V43.4862H92.9888Z" fill="#6142DE"/>
<path d="M77.1291 28.3225C77.5797 28.3225 77.9451 28.6878 77.9451 29.1385V30.4251C77.9451 31.2543 77.2433 31.8612 76.4236 31.9872C75.536 32.1236 74.9303 32.5349 74.2732 33.5131L74.2732 29.1385C74.2732 28.6878 74.6385 28.3225 75.0891 28.3225L77.1291 28.3225ZM77.1291 28.3225C77.5797 28.3225 77.9451 28.6878 77.9451 29.1385V30.4251C77.9451 31.2543 77.2433 31.8612 76.4236 31.9872C75.536 32.1236 74.9303 32.5349 74.2732 33.5131L74.2732 29.1385C74.2732 28.6878 74.6385 28.3225 75.0891 28.3225L77.1291 28.3225Z" fill="#6142DE"/>
<path d="M78.8844 37.1848C78.8844 33.5804 81.8335 30.6313 85.4378 30.6313C89.0422 30.6313 91.9913 33.5804 91.9913 37.1848C91.9913 40.7892 89.0422 43.7382 85.4378 43.7382C81.8335 43.7382 78.8844 40.7892 78.8844 37.1848ZM82.4132 37.1848C82.4132 38.8483 83.7743 40.2094 85.4378 40.2094C87.1014 40.2094 88.4625 38.8483 88.4625 37.1848C88.4625 35.5212 87.1014 34.1601 85.4378 34.1601C83.7743 34.1601 82.4132 35.5212 82.4132 37.1848Z" fill="#6142DE"/>
<path d="M74.3412 43.4862V35.2584C74.3412 33.7186 75.5894 32.4704 77.1291 32.4704H77.8771V43.4862H74.3412ZM74.3412 43.4862V35.2584C74.3412 33.7186 75.5894 32.4704 77.1291 32.4704H77.8771V43.4862H74.3412Z" fill="#6142DE"/>
<path d="M61.6541 37.1848C61.6541 33.5552 64.5779 30.6313 68.2075 30.6313C69.9971 30.6313 71.6355 31.3371 72.8201 32.4965L69.8711 34.6894C69.3922 34.3618 68.8124 34.1601 68.2075 34.1601C66.5439 34.1601 65.1828 35.5212 65.1828 37.1848C65.1828 38.8483 66.5439 40.2094 68.2075 40.2094C68.8124 40.2094 69.3922 40.0078 69.8711 39.6801L72.8201 41.873C71.6355 43.0325 69.9971 43.7382 68.2075 43.7382C64.5779 43.7382 61.6541 40.8144 61.6541 37.1848Z" fill="#6142DE"/>
<path d="M47.5498 37.1848C47.5498 33.5804 50.4989 30.6313 54.1033 30.6313C57.7077 30.6313 60.6567 33.5804 60.6567 37.1848C60.6567 39.1256 60.6567 43.7382 60.6567 43.7382H54.1033C50.4989 43.7382 47.5498 40.7892 47.5498 37.1848ZM51.0786 37.1848C51.0786 38.8483 52.4397 40.2094 54.1033 40.2094C55.0359 40.2094 57.1279 40.2094 57.1279 40.2094C57.1279 40.2094 57.1279 37.9157 57.1279 37.1848C57.1279 35.5212 55.7668 34.1601 54.1033 34.1601C52.4397 34.1601 51.0786 35.5212 51.0786 37.1848Z" fill="#6142DE"/>
</svg>
